<?xml version="1.0" encoding="utf-8"?>
<!-- Generator: Adobe Illustrator 23.0.3, SVG Export Plug-In . SVG Version: 6.00 Build 0)  -->
<svg version="1.1" id="Layer_1" xmlns="http://www.w3.org/2000/svg" xmlns:xlink="http://www.w3.org/1999/xlink" x="0px" y="0px"
	 viewBox="0 0 512 512" style="enable-background:new 0 0 512 512;" xml:space="preserve">
<style type="text/css">
	.st0{fill:#ED1C24;}
	.st1{fill:#F28FB7;}
	.st2{fill:none;}
	.st3{fill:#DA1C5C;}
	.st4{fill:#E04B84;}
	.st5{fill:#EA78AC;}
	.st6{fill:#C40C53;}
	.st7{fill:#F9A5CF;}
	.st8{fill:#F05025;}
	.st9{fill:#EF3F0F;}
	.st10{fill:#F37552;}
	.st11{fill:#F79980;}
	.st12{fill:#FAC0B0;}
	.st13{fill:#F25A3C;}
	.st14{fill:#E63A3A;}
	.st15{fill:#FF7F40;}
	.st16{fill:#FF9F40;}
	.st17{fill:#FFBE40;}
	.st18{fill:#FF874D;}
	.st19{fill:#FE905B;}
	.st20{fill:#FE9868;}
	.st21{fill:#FDA175;}
	.st22{fill:#FDA982;}
	.st23{fill:#FCB290;}
	.st24{fill:#FCBA9D;}
	.st25{fill:#FE5DDC;}
	.st26{fill:#FD77E2;}
	.st27{fill:#FE50D7;}
	.st28{fill:#FC85E5;}
	.st29{fill:#FF35D0;}
	.st30{fill:#EA5A5A;}
	.st31{fill:#A62A2A;}
	.st32{fill:#F33D3D;}
	.st33{fill:#671A1A;}
	.st34{fill:#F29F33;}
	.st35{fill:#FFC136;}
	.st36{fill:#E67A31;}
	.st37{fill:#FFD936;}
	.st38{fill:#FFF436;}
	.st39{fill:none;stroke:#231F20;stroke-width:15;stroke-linecap:round;stroke-linejoin:round;stroke-miterlimit:10;}
</style>
<g>
	<polygon class="st39" points="215.36,157.84 157.84,215.36 50,170.68 170.68,50 	"/>
	<polygon class="st39" points="157.84,215.36 157.84,296.64 50,341.32 50,170.68 	"/>
	<polygon class="st39" points="215.36,354.16 170.68,462 50,341.32 157.84,296.64 	"/>
	<polygon class="st39" points="341.32,50 296.64,157.84 256,157.84 256,50 	"/>
	<polygon class="st39" points="256,50 256,157.84 215.36,157.84 170.68,50 	"/>
	<polygon class="st39" points="341.32,462 256,462 256,354.16 296.64,354.16 	"/>
	<polygon class="st39" points="256,354.16 256,462 170.68,462 215.36,354.16 	"/>
	<polygon class="st39" points="462,341.32 341.32,462 296.64,354.16 354.16,296.64 	"/>
	<polygon class="st39" points="462,170.68 462,341.32 354.16,296.64 354.16,215.36 	"/>
	<polygon class="st39" points="462,170.68 354.16,215.36 296.64,157.84 341.32,50 	"/>
	<polygon class="st39" points="256,157.84 256,354.16 215.36,354.16 157.84,296.64 157.84,215.36 215.36,157.84 	"/>
	<polygon class="st39" points="354.16,215.36 354.16,296.64 296.64,354.16 256,354.16 256,157.84 296.64,157.84 	"/>
</g>
</svg>
