<?xml version="1.0" encoding="utf-8"?>
<!-- Generator: Adobe Illustrator 23.0.0, SVG Export Plug-In . SVG Version: 6.00 Build 0)  -->
<svg version="1.1" id="Layer_1" xmlns="http://www.w3.org/2000/svg" xmlns:xlink="http://www.w3.org/1999/xlink" x="0px" y="0px"
	 viewBox="0 0 64 64" style="enable-background:new 0 0 64 64;" xml:space="preserve">
<path d="M49.45,26.69c-2.31,0-4.49,1.02-6.03,2.8c-2.73,0.19-5.6,0.12-8.76-0.19c-1.79-9.25-5.93-17.03-12-22.52
	c-0.29-0.26-0.72-0.28-1.02-0.04s-0.4,0.65-0.23,1c0.05,0.09,4.62,9.23,6.89,20.58c-11.35-2.27-20.48-6.84-20.58-6.89
	c-0.34-0.17-0.76-0.08-1,0.23c-0.23,0.31-0.22,0.74,0.04,1.02c5.49,6.07,13.27,10.21,22.52,12c0.32,3.16,0.38,6.04,0.19,8.76
	c-1.78,1.54-2.8,3.71-2.8,6.03c0,4.4,3.59,7.98,8,7.98c4.4,0,7.98-3.58,7.98-7.98c0-4.08-3.1-7.48-7.07-7.93
	c0.06-1.36,0.08-3.47-0.11-6.04c2.57,0.19,4.68,0.17,6.04,0.11c0.45,3.97,3.85,7.07,7.93,7.07c4.4,0,7.98-3.58,7.98-7.98
	C57.43,30.28,53.85,26.69,49.45,26.69z M32.27,32c0,0.16-0.11,0.27-0.27,0.27c-0.15,0-0.27-0.12-0.27-0.27
	c0-0.14,0.13-0.27,0.27-0.27C32.15,31.73,32.27,31.85,32.27,32z M11.18,24.71c4.04,1.66,10.61,4.04,17.99,5.39
	c0.26,0.05,0.52-0.04,0.71-0.22c0.19-0.19,0.27-0.45,0.22-0.71c-1.35-7.38-3.73-13.95-5.39-17.99c4.27,5.05,7.12,11.41,8.49,18.99
	c0.01,0.04,0.03,0.08,0.04,0.12c-0.35-0.26-0.78-0.41-1.24-0.41c-1.17,0-2.12,0.95-2.12,2.12c0,0.47,0.16,0.89,0.41,1.24
	c-0.04-0.01-0.08-0.03-0.12-0.04C22.59,31.83,16.22,28.97,11.18,24.71z M49.45,41.07c-3.49,0-6.35-2.84-6.38-6.32
	c0-0.22-0.09-0.43-0.26-0.58c-0.16-0.15-0.38-0.23-0.6-0.21c-1.32,0.08-4.05,0.18-7.54-0.15c-0.24-0.02-0.47,0.06-0.64,0.23
	c-0.17,0.17-0.25,0.4-0.23,0.64c0.33,3.49,0.23,6.22,0.15,7.54c-0.01,0.22,0.06,0.44,0.21,0.6c0.15,0.16,0.36,0.25,0.58,0.26
	c3.49,0.03,6.32,2.89,6.32,6.38c0,3.52-2.86,6.38-6.38,6.38c-3.53,0-6.4-2.86-6.4-6.38c0-1.94,0.9-3.76,2.47-5
	c0.18-0.14,0.28-0.34,0.3-0.57c0.24-3.09,0.16-6.36-0.24-9.98c-0.01-0.06-0.03-0.12-0.05-0.18c0.35,0.25,0.77,0.4,1.22,0.4
	c1.17,0,2.12-0.95,2.12-2.12c0-0.46-0.15-0.88-0.4-1.22c0.06,0.02,0.11,0.04,0.18,0.05c3.63,0.39,6.89,0.47,9.98,0.24
	c0.22-0.02,0.43-0.13,0.57-0.3c1.24-1.57,3.06-2.47,5-2.47c3.52,0,6.38,2.87,6.38,6.4C55.83,38.21,52.97,41.07,49.45,41.07z"/>
</svg>
